<svg width="793" height="369" viewBox="0 0 793 369" fill="none" xmlns="http://www.w3.org/2000/svg">
<rect width="793" height="369" rx="20" fill="#F0F0F0"/>
<rect x="11.5" y="9.5" width="770" height="351" rx="19.5" stroke="#676767" stroke-dasharray="3 3"/>
<path d="M353.042 213.595H354.287V227.185H353.042V213.595ZM347.132 214.645C349.142 214.645 350.582 216.49 350.582 219.37C350.582 222.265 349.142 224.11 347.132 224.11C345.137 224.11 343.697 222.265 343.697 219.37C343.697 216.49 345.137 214.645 347.132 214.645ZM347.132 215.77C345.812 215.77 344.882 217.18 344.882 219.37C344.882 221.575 345.812 223.015 347.132 223.015C348.467 223.015 349.382 221.575 349.382 219.37C349.382 217.18 348.467 215.77 347.132 215.77ZM362.131 214.255H370.861V215.26H362.131V214.255ZM360.676 219.97H372.916V220.975H360.676V219.97ZM365.701 217.24H366.931V220.12H365.701V217.24ZM370.141 214.255H371.356V215.215C371.356 216.235 371.356 217.45 371.011 219.025L369.796 218.89C370.141 217.33 370.141 216.22 370.141 215.215V214.255ZM366.121 222.04H367.186V222.64C367.186 225.055 364.801 226.66 362.026 227.125L361.546 226.135C364.036 225.79 366.121 224.425 366.121 222.64V222.04ZM366.301 222.04H367.366V222.64C367.366 224.425 369.466 225.79 371.941 226.135L371.476 227.125C368.671 226.66 366.301 225.055 366.301 222.64V222.04ZM380.755 213.835C383.74 213.835 385.525 214.675 385.525 216.19C385.525 217.705 383.74 218.545 380.755 218.545C377.755 218.545 375.985 217.705 375.985 216.19C375.985 214.675 377.755 213.835 380.755 213.835ZM380.755 214.78C378.535 214.78 377.26 215.29 377.26 216.19C377.26 217.09 378.535 217.6 380.755 217.6C382.96 217.6 384.235 217.09 384.235 216.19C384.235 215.29 382.96 214.78 380.755 214.78ZM374.62 219.445H386.875V220.45H374.62V219.445ZM376.105 221.605H385.315V224.665H377.365V226.315H376.135V223.765H384.085V222.565H376.105V221.605ZM376.135 226.045H385.72V227.02H376.135V226.045ZM393.668 214.24H402.398V215.245H393.668V214.24ZM401.588 214.24H402.803V215.29C402.803 216.415 402.803 217.75 402.413 219.535L401.183 219.4C401.588 217.645 401.588 216.4 401.588 215.29V214.24ZM401.933 216.535V217.42L393.488 217.795L393.323 216.805L401.933 216.535ZM392.108 219.16H404.348V220.15H392.108V219.16ZM393.533 221.44H402.908V224.605H394.793V226.435H393.563V223.675H401.678V222.4H393.533V221.44ZM393.563 226.015H403.373V226.99H393.563V226.015ZM415.922 213.61H417.182V221.905H415.922V213.61ZM408.122 222.64H417.182V227.17H415.922V223.66H408.122V222.64ZM406.757 220.12H407.852C410.312 220.12 412.127 220.045 414.302 219.7L414.437 220.705C412.202 221.08 410.372 221.14 407.852 221.14H406.757V220.12ZM406.727 214.405H412.877V218.17H407.972V220.615H406.757V217.21H411.662V215.425H406.727V214.405ZM429.205 213.61H430.45V227.17H429.205V213.61ZM430.15 219.175H432.67V220.225H430.15V219.175ZM419.95 215.77H427.945V216.79H419.95V215.77ZM424 217.915C425.92 217.915 427.3 219.205 427.3 221.035C427.3 222.865 425.92 224.155 424 224.155C422.095 224.155 420.7 222.865 420.7 221.035C420.7 219.205 422.095 217.915 424 217.915ZM424 218.95C422.77 218.95 421.885 219.805 421.885 221.035C421.885 222.25 422.77 223.12 424 223.12C425.23 223.12 426.115 222.25 426.115 221.035C426.115 219.805 425.23 218.95 424 218.95ZM423.355 213.775H424.6V216.235H423.355V213.775ZM440.089 216.625H444.184V217.66H440.089V216.625ZM440.089 220.915H444.184V221.95H440.089V220.915ZM437.599 214.645C439.564 214.645 440.974 216.49 440.974 219.37C440.974 222.265 439.564 224.11 437.599 224.11C435.619 224.11 434.224 222.265 434.224 219.37C434.224 216.49 435.619 214.645 437.599 214.645ZM437.599 215.77C436.294 215.77 435.394 217.18 435.394 219.37C435.394 221.575 436.294 223.015 437.599 223.015C438.904 223.015 439.804 221.575 439.804 219.37C439.804 217.18 438.904 215.77 437.599 215.77ZM443.914 213.595H445.144V227.185H443.914V213.595ZM334.316 239.78H335.336V242.21C335.336 245.21 333.716 248.135 331.571 249.275L330.806 248.285C332.771 247.295 334.316 244.685 334.316 242.21V239.78ZM334.541 239.78H335.546V242.21C335.546 244.595 337.061 247.07 338.981 248.03L338.216 249.02C336.116 247.895 334.541 245.12 334.541 242.21V239.78ZM340.166 238.61H341.426V252.17H340.166V238.61ZM341.126 244.1H343.646V245.15H341.126V244.1ZM348.56 240.095H349.595V241.475C349.595 243.965 348.065 246.05 345.785 246.875L345.14 245.885C347.18 245.165 348.56 243.41 348.56 241.475V240.095ZM348.8 240.095H349.835V241.475C349.835 243.305 351.245 244.955 353.255 245.63L352.61 246.605C350.36 245.84 348.8 243.86 348.8 241.475V240.095ZM345.47 239.735H352.895V240.74H345.47V239.735ZM354.815 238.625H356.075V248.54H354.815V238.625ZM347.36 250.85H356.48V251.87H347.36V250.85ZM347.36 247.61H348.59V251.3H347.36V247.61ZM365.038 238.835C368.023 238.835 369.808 239.675 369.808 241.19C369.808 242.705 368.023 243.545 365.038 243.545C362.038 243.545 360.268 242.705 360.268 241.19C360.268 239.675 362.038 238.835 365.038 238.835ZM365.038 239.78C362.818 239.78 361.543 240.29 361.543 241.19C361.543 242.09 362.818 242.6 365.038 242.6C367.243 242.6 368.518 242.09 368.518 241.19C368.518 240.29 367.243 239.78 365.038 239.78ZM358.903 244.445H371.158V245.45H358.903V244.445ZM360.388 246.605H369.598V249.665H361.648V251.315H360.418V248.765H368.368V247.565H360.388V246.605ZM360.418 251.045H370.003V252.02H360.418V251.045ZM383.202 241.835H386.847V242.87H383.202V241.835ZM380.082 239.225C382.107 239.225 383.577 240.515 383.577 242.375C383.577 244.235 382.107 245.51 380.082 245.51C378.057 245.51 376.587 244.235 376.587 242.375C376.587 240.515 378.057 239.225 380.082 239.225ZM380.082 240.275C378.747 240.275 377.787 241.13 377.787 242.375C377.787 243.605 378.747 244.475 380.082 244.475C381.417 244.475 382.377 243.605 382.377 242.375C382.377 241.13 381.417 240.275 380.082 240.275ZM386.292 238.61H387.537V245.885H386.292V238.61ZM378.852 246.56H380.097V248.27H386.307V246.56H387.537V251.99H378.852V246.56ZM380.097 249.26V250.985H386.307V249.26H380.097ZM390.351 249.47H402.636V250.505H390.351V249.47ZM395.841 246.56H397.086V249.905H395.841V246.56ZM391.836 239.615H401.121V243.725H393.111V246.44H391.881V242.72H399.891V240.62H391.836V239.615ZM391.881 245.915H401.436V246.935H391.881V245.915ZM405.854 245.105H415.169V246.125H405.854V245.105ZM404.309 249.305H416.594V250.34H404.309V249.305ZM405.854 239.855H415.034V240.89H407.099V245.555H405.854V239.855ZM430.963 238.61H432.208V252.17H430.963V238.61ZM431.908 244.175H434.428V245.225H431.908V244.175ZM421.708 240.77H429.703V241.79H421.708V240.77ZM425.758 242.915C427.678 242.915 429.058 244.205 429.058 246.035C429.058 247.865 427.678 249.155 425.758 249.155C423.853 249.155 422.458 247.865 422.458 246.035C422.458 244.205 423.853 242.915 425.758 242.915ZM425.758 243.95C424.528 243.95 423.643 244.805 423.643 246.035C423.643 247.25 424.528 248.12 425.758 248.12C426.988 248.12 427.873 247.25 427.873 246.035C427.873 244.805 426.988 243.95 425.758 243.95ZM425.113 238.775H426.358V241.235H425.113V238.775ZM441.082 243.455H443.677V244.49H441.082V243.455ZM438.547 239.885H439.522V242.465C439.522 245.3 438.337 248.045 436.357 249.26L435.577 248.315C437.437 247.22 438.547 244.79 438.547 242.465V239.885ZM438.787 239.885H439.747V242.42C439.747 244.595 440.767 246.905 442.552 247.985L441.832 248.96C439.882 247.76 438.787 245.06 438.787 242.42V239.885ZM446.062 238.61H447.262V252.17H446.062V238.61ZM443.317 238.895H444.487V251.495H443.317V238.895ZM452.7 245.585H453.93V249.65H452.7V245.585ZM457.71 245.585H458.955V249.65H457.71V245.585ZM449.7 249.41H461.985V250.445H449.7V249.41ZM455.82 239.465C458.685 239.465 460.74 240.83 460.74 242.96C460.74 245.075 458.685 246.44 455.82 246.44C452.94 246.44 450.885 245.075 450.885 242.96C450.885 240.83 452.94 239.465 455.82 239.465ZM455.82 240.455C453.645 240.455 452.085 241.445 452.085 242.96C452.085 244.46 453.645 245.45 455.82 245.45C457.995 245.45 459.54 244.46 459.54 242.96C459.54 241.445 457.995 240.455 455.82 240.455Z" fill="black"/>
<g clip-path="url(#clip0_487_14886)">
<path d="M400.584 152.083H384.25C382.004 152.083 380.187 153.921 380.187 156.166L380.167 188.833C380.167 191.079 381.984 192.916 384.23 192.916H408.75C410.996 192.916 412.834 191.079 412.834 188.833V164.333L400.584 152.083ZM408.75 188.833H384.25V156.166H398.542V166.375H408.75V188.833ZM388.334 178.645L391.212 181.524L394.459 178.298V186.791H398.542V178.298L401.788 181.544L404.667 178.645L396.521 170.458L388.334 178.645Z" fill="#484848"/>
</g>
<defs>
<clipPath id="clip0_487_14886">
<rect width="49" height="49" fill="white" transform="translate(372 148)"/>
</clipPath>
</defs>
</svg>
