<svg width="248" height="48" viewBox="0 0 248 48" fill="none" xmlns="http://www.w3.org/2000/svg">
<path d="M30.875 47H0.15625V2.1875H30.875V11.1562H9.125V20.125H23.8438V29.0938H9.125V38.0312H30.875V47ZM67.8262 47H65.7637L62.4512 42.4062C61.6387 43.1354 60.7742 43.8229 59.8575 44.4688C58.9617 45.0938 58.0137 45.6458 57.0137 46.125C56.0137 46.5833 54.9825 46.9479 53.92 47.2188C52.8783 47.4896 51.8158 47.625 50.7325 47.625C48.3783 47.625 46.1596 47.1875 44.0762 46.3125C42.0137 45.4167 40.2012 44.1875 38.6387 42.625C37.0971 41.0417 35.8783 39.1771 34.9825 37.0312C34.0867 34.8646 33.6387 32.5104 33.6387 29.9688C33.6387 27.4479 34.0867 25.1042 34.9825 22.9375C35.8783 20.7708 37.0971 18.8958 38.6387 17.3125C40.2012 15.7292 42.0137 14.4896 44.0762 13.5938C46.1596 12.6979 48.3783 12.25 50.7325 12.25C51.4825 12.25 52.2533 12.3125 53.045 12.4375C53.8575 12.5625 54.6387 12.7708 55.3887 13.0625C56.1596 13.3333 56.8783 13.6979 57.545 14.1562C58.2117 14.6146 58.7742 15.1771 59.2325 15.8438V0.21875H67.8262V47ZM59.2325 29.9688C59.2325 28.8021 59.0033 27.6771 58.545 26.5938C58.1075 25.4896 57.5033 24.5208 56.7325 23.6875C55.9617 22.8333 55.0554 22.1562 54.0137 21.6562C52.9929 21.1354 51.8992 20.875 50.7325 20.875C49.5658 20.875 48.4617 21.0833 47.42 21.5C46.3992 21.9167 45.5033 22.5208 44.7325 23.3125C43.9825 24.0833 43.3887 25.0312 42.9512 26.1562C42.5137 27.2812 42.295 28.5521 42.295 29.9688C42.295 31.1979 42.5137 32.3646 42.9512 33.4688C43.3887 34.5729 43.9825 35.5417 44.7325 36.375C45.5033 37.2083 46.3992 37.8646 47.42 38.3438C48.4617 38.8229 49.5658 39.0625 50.7325 39.0625C51.8992 39.0625 52.9929 38.8125 54.0137 38.3125C55.0554 37.7917 55.9617 37.1146 56.7325 36.2812C57.5033 35.4271 58.1075 34.4583 58.545 33.375C59.0033 32.2708 59.2325 31.1354 59.2325 29.9688ZM99.1212 43.0938C98.4337 43.7188 97.6942 44.3125 96.9025 44.875C96.1317 45.4167 95.3192 45.8958 94.465 46.3125C93.6108 46.7083 92.7254 47.0208 91.8087 47.25C90.9129 47.5 89.9962 47.625 89.0587 47.625C86.9962 47.625 85.0587 47.2604 83.2462 46.5312C81.4337 45.8021 79.84 44.7708 78.465 43.4375C77.1108 42.0833 76.0379 40.4479 75.2462 38.5312C74.4754 36.5938 74.09 34.4271 74.09 32.0312V13.5312H82.59V32.0312C82.59 33.1562 82.7567 34.1667 83.09 35.0625C83.4442 35.9375 83.9129 36.6771 84.4962 37.2812C85.0796 37.8854 85.7567 38.3438 86.5275 38.6562C87.3192 38.9688 88.1629 39.125 89.0587 39.125C89.9337 39.125 90.7567 38.9271 91.5275 38.5312C92.3192 38.1146 93.0067 37.5729 93.59 36.9062C94.1733 36.2396 94.6317 35.4896 94.965 34.6562C95.2983 33.8021 95.465 32.9271 95.465 32.0312V13.5312H103.996V47H101.934L99.1212 43.0938ZM130.416 47H121.479V11.1562H108.01V2.1875H143.854V11.1562H130.416V47ZM167.836 43.0938C167.149 43.7188 166.409 44.3125 165.617 44.875C164.847 45.4167 164.034 45.8958 163.18 46.3125C162.326 46.7083 161.44 47.0208 160.524 47.25C159.628 47.5 158.711 47.625 157.774 47.625C155.711 47.625 153.774 47.2604 151.961 46.5312C150.149 45.8021 148.555 44.7708 147.18 43.4375C145.826 42.0833 144.753 40.4479 143.961 38.5312C143.19 36.5938 142.805 34.4271 142.805 32.0312V13.5312H151.305V32.0312C151.305 33.1562 151.472 34.1667 151.805 35.0625C152.159 35.9375 152.628 36.6771 153.211 37.2812C153.795 37.8854 154.472 38.3438 155.242 38.6562C156.034 38.9688 156.878 39.125 157.774 39.125C158.649 39.125 159.472 38.9271 160.242 38.5312C161.034 38.1146 161.722 37.5729 162.305 36.9062C162.888 36.2396 163.347 35.4896 163.68 34.6562C164.013 33.8021 164.18 32.9271 164.18 32.0312V13.5312H172.711V47H170.649L167.836 43.0938ZM212.913 29.9688C212.913 32.5938 212.465 34.9896 211.569 37.1562C210.673 39.3229 209.454 41.1875 207.913 42.75C206.371 44.2917 204.558 45.4896 202.475 46.3438C200.413 47.1979 198.194 47.625 195.819 47.625C193.465 47.625 191.246 47.1875 189.163 46.3125C187.1 45.4375 185.288 44.2188 183.725 42.6562C182.183 41.0938 180.965 39.2396 180.069 37.0938C179.173 34.9271 178.725 32.5521 178.725 29.9688V0.21875H187.288V15.8438C187.746 15.2604 188.298 14.7396 188.944 14.2812C189.61 13.8229 190.319 13.4479 191.069 13.1562C191.84 12.8646 192.631 12.6458 193.444 12.5C194.256 12.3333 195.048 12.25 195.819 12.25C198.194 12.25 200.413 12.6979 202.475 13.5938C204.558 14.4688 206.371 15.6979 207.913 17.2812C209.454 18.8646 210.673 20.7396 211.569 22.9062C212.465 25.0521 212.913 27.4062 212.913 29.9688ZM204.319 29.9688C204.319 28.6771 204.09 27.4792 203.631 26.375C203.194 25.25 202.59 24.2812 201.819 23.4688C201.048 22.6562 200.142 22.0208 199.1 21.5625C198.079 21.1042 196.985 20.875 195.819 20.875C194.652 20.875 193.548 21.1354 192.506 21.6562C191.485 22.1562 190.59 22.8333 189.819 23.6875C189.048 24.5208 188.444 25.4896 188.006 26.5938C187.569 27.6771 187.35 28.8021 187.35 29.9688C187.35 31.2604 187.569 32.4583 188.006 33.5625C188.444 34.6667 189.048 35.625 189.819 36.4375C190.59 37.25 191.485 37.8958 192.506 38.375C193.548 38.8333 194.652 39.0625 195.819 39.0625C196.985 39.0625 198.079 38.8333 199.1 38.375C200.142 37.8958 201.048 37.25 201.819 36.4375C202.59 35.625 203.194 34.6667 203.631 33.5625C204.09 32.4583 204.319 31.2604 204.319 29.9688ZM231.145 38.8125C231.478 38.9167 231.812 38.9896 232.145 39.0312C232.478 39.0521 232.812 39.0625 233.145 39.0625C233.978 39.0625 234.78 38.9479 235.551 38.7188C236.322 38.4896 237.041 38.1667 237.708 37.75C238.395 37.3125 238.999 36.7917 239.52 36.1875C240.062 35.5625 240.499 34.875 240.833 34.125L247.083 40.4062C246.291 41.5312 245.374 42.5417 244.333 43.4375C243.312 44.3333 242.197 45.0938 240.989 45.7188C239.801 46.3438 238.541 46.8125 237.208 47.125C235.895 47.4583 234.541 47.625 233.145 47.625C230.791 47.625 228.572 47.1875 226.489 46.3125C224.426 45.4375 222.614 44.2188 221.051 42.6562C219.51 41.0938 218.291 39.2396 217.395 37.0938C216.499 34.9271 216.051 32.5521 216.051 29.9688C216.051 27.3229 216.499 24.9062 217.395 22.7188C218.291 20.5312 219.51 18.6667 221.051 17.125C222.614 15.5833 224.426 14.3854 226.489 13.5312C228.572 12.6771 230.791 12.25 233.145 12.25C234.541 12.25 235.905 12.4167 237.239 12.75C238.572 13.0833 239.833 13.5625 241.02 14.1875C242.228 14.8125 243.353 15.5833 244.395 16.5C245.437 17.3958 246.353 18.4062 247.145 19.5312L231.145 38.8125ZM235.52 21.2188C235.124 21.0729 234.728 20.9792 234.333 20.9375C233.958 20.8958 233.562 20.875 233.145 20.875C231.978 20.875 230.874 21.0938 229.833 21.5312C228.812 21.9479 227.916 22.5521 227.145 23.3438C226.395 24.1354 225.801 25.0938 225.364 26.2188C224.926 27.3229 224.708 28.5729 224.708 29.9688C224.708 30.2812 224.718 30.6354 224.739 31.0312C224.78 31.4271 224.833 31.8333 224.895 32.25C224.978 32.6458 225.072 33.0312 225.176 33.4062C225.28 33.7812 225.416 34.1146 225.583 34.4062L235.52 21.2188Z" fill="#09CF83"/>
</svg>
