<svg width="81" height="81" viewBox="0 0 81 81" fill="none" xmlns="http://www.w3.org/2000/svg">
<path d="M24.5024 15.4306C23.6114 15.6331 20.8979 16.4836 18.4274 17.2936C15.9974 18.1036 12.9599 18.9946 11.7449 19.2376L9.51744 19.6831L9.39594 40.8241L9.31494 61.9651H10.9349C11.8259 61.9651 15.1064 61.1551 18.2654 60.1426C28.2284 56.9431 32.4404 56.8621 36.2879 59.7781C39.0824 61.9246 40.6214 60.7501 37.9889 58.4821C33.5744 54.7966 28.4714 54.7156 17.8604 58.1581C14.8634 59.1301 12.1904 59.9401 11.8664 59.9401C11.4209 59.9401 11.3399 56.7001 11.4209 40.6216L11.5424 21.3031L13.1624 20.9791C14.0534 20.7766 17.0504 19.8856 19.8449 18.9541C24.4619 17.4151 25.2719 17.2531 29.1599 17.2531C32.4809 17.2126 33.6959 17.3746 34.7084 17.9416C36.4094 18.8731 38.6774 21.2221 39.2849 22.6801C39.9329 24.2596 41.0669 24.2596 41.7149 22.6801C42.3224 21.2221 44.5904 18.8731 46.2914 17.9416C47.3039 17.3746 48.5189 17.2126 51.8399 17.2531C55.7279 17.2531 56.5379 17.4151 61.1549 18.9541C63.9494 19.8856 66.9464 20.7766 67.8374 20.9791L69.4574 21.3031L69.5789 40.6216C69.6599 57.0646 69.5789 59.9401 69.0929 59.9401C68.7689 59.9401 66.0959 59.1301 63.0989 58.1581C52.5284 54.7156 47.4254 54.7966 43.0514 58.4821C40.3784 60.7501 41.9174 61.9246 44.7119 59.7781C48.5594 56.8621 52.7714 56.9431 62.7344 60.1426C65.8934 61.1551 69.1739 61.9651 70.0649 61.9651H71.6849L71.6039 40.8241L71.4824 19.6831L69.2549 19.2376C68.0399 18.9541 64.6784 17.9821 61.7624 17.0101C56.7809 15.3091 56.2544 15.2281 51.8399 15.1876C46.4939 15.1876 44.9954 15.7141 42.1199 18.7111L40.4999 20.3311L38.8799 18.7111C36.2879 15.9976 34.4249 15.2686 29.9699 15.1471C27.8639 15.0661 25.3934 15.1876 24.5024 15.4306Z" fill="white"/>
<path d="M39.7711 26.4061C39.4876 26.6896 39.2851 28.1881 39.2851 30.2536V33.6151L36.0046 31.5496C34.1821 30.4156 32.4811 29.6056 32.1571 29.7271C31.2661 30.0511 31.3066 50.9491 32.1976 51.2731C32.5216 51.4351 34.2226 50.6251 36.0451 49.4506L39.2851 47.3851V52.1641C39.2851 55.8091 39.4471 57.1456 39.8926 57.7531C40.5001 58.5226 40.5001 58.5226 41.1076 57.7531C41.5936 57.1456 41.7151 55.7281 41.7151 51.4351V45.8866L45.5626 43.4971C47.7091 42.2011 49.4101 40.8646 49.4101 40.5001C49.4101 40.1761 47.7091 38.8396 45.5626 37.5436L41.7151 35.1541V31.0231C41.7151 27.2161 41.3911 25.9201 40.5001 25.9201C40.3786 25.9201 40.0546 26.1226 39.7711 26.4061Z" fill="white"/>
<path d="M25.7174 59.9805C24.5834 60.1425 21.1409 61.155 18.0629 62.1675C14.9444 63.18 12.0284 63.99 11.5019 63.99C10.0439 63.99 9.31494 64.4355 9.31494 65.2455C9.31494 66.501 11.9474 66.2175 18.2654 64.1925C28.2689 60.9525 32.4404 60.8715 36.2474 63.828C37.8674 65.043 38.3534 65.205 40.4999 65.205C42.6464 65.205 43.1324 65.043 44.7524 63.828C48.5594 60.912 52.8119 60.993 62.7344 64.1925C69.0524 66.2175 71.6849 66.501 71.6849 65.2455C71.6849 64.4355 70.9559 63.99 69.4979 63.99C68.9714 63.99 66.0959 63.18 63.0179 62.1675C53.2169 58.968 48.4379 58.8465 44.1044 61.803C41.3504 63.6255 39.6494 63.666 36.8954 61.803C33.8174 59.7375 30.4559 59.1705 25.7174 59.9805Z" fill="white"/>
</svg>
