<svg width="120" height="32" viewBox="0 0 120 32" fill="none" xmlns="http://www.w3.org/2000/svg">
<path d="M56.5348 21.0566V23H48.9859V21.0566H56.5348ZM49.6793 8.78125V23H47.2281V8.78125H49.6793ZM55.5484 14.7188V16.6328H48.9859V14.7188H55.5484ZM56.4859 8.78125V10.7344H48.9859V8.78125H56.4859ZM64.7023 20.8125V8H67.0656V23H64.927L64.7023 20.8125ZM57.8273 17.834V17.6289C57.8273 16.8281 57.9217 16.099 58.1105 15.4414C58.2993 14.7773 58.5728 14.2077 58.9309 13.7324C59.2889 13.2507 59.7251 12.8828 60.2395 12.6289C60.7538 12.3685 61.3332 12.2383 61.9777 12.2383C62.6158 12.2383 63.1757 12.362 63.6574 12.6094C64.1392 12.8568 64.5493 13.2116 64.8879 13.6738C65.2264 14.1296 65.4966 14.6764 65.6984 15.3145C65.9003 15.946 66.0435 16.6491 66.1281 17.4238V18.0781C66.0435 18.8333 65.9003 19.5234 65.6984 20.1484C65.4966 20.7734 65.2264 21.3138 64.8879 21.7695C64.5493 22.2253 64.1359 22.5768 63.6477 22.8242C63.1659 23.0716 62.6027 23.1953 61.9582 23.1953C61.3202 23.1953 60.744 23.0618 60.2297 22.7949C59.7219 22.528 59.2889 22.1536 58.9309 21.6719C58.5728 21.1901 58.2993 20.6237 58.1105 19.9727C57.9217 19.3151 57.8273 18.6022 57.8273 17.834ZM60.1809 17.6289V17.834C60.1809 18.3158 60.2232 18.765 60.3078 19.1816C60.399 19.5983 60.5389 19.9661 60.7277 20.2852C60.9165 20.5977 61.1607 20.8451 61.4602 21.0273C61.7661 21.2031 62.1307 21.291 62.5539 21.291C63.0878 21.291 63.5272 21.1738 63.8723 20.9395C64.2173 20.7051 64.4875 20.3893 64.6828 19.9922C64.8846 19.5885 65.0214 19.1393 65.093 18.6445V16.877C65.0539 16.4928 64.9725 16.1348 64.8488 15.8027C64.7316 15.4707 64.5721 15.181 64.3703 14.9336C64.1685 14.6797 63.9178 14.4844 63.6184 14.3477C63.3254 14.2044 62.9771 14.1328 62.5734 14.1328C62.1437 14.1328 61.7792 14.224 61.4797 14.4062C61.1802 14.5885 60.9328 14.8392 60.7375 15.1582C60.5487 15.4772 60.4087 15.8483 60.3176 16.2715C60.2264 16.6947 60.1809 17.1471 60.1809 17.6289ZM76.034 20.5098V12.4336H78.3973V23H76.1707L76.034 20.5098ZM76.366 18.3125L77.157 18.293C77.157 19.0026 77.0789 19.6569 76.9227 20.2559C76.7664 20.8483 76.5255 21.3659 76.2 21.8086C75.8745 22.2448 75.4578 22.5866 74.95 22.834C74.4422 23.0749 73.8335 23.1953 73.1238 23.1953C72.6095 23.1953 72.1375 23.1204 71.7078 22.9707C71.2781 22.821 70.907 22.5898 70.5945 22.2773C70.2885 21.9648 70.0509 21.5579 69.8816 21.0566C69.7124 20.5553 69.6277 19.9564 69.6277 19.2598V12.4336H71.9813V19.2793C71.9813 19.6634 72.0268 19.9857 72.118 20.2461C72.2091 20.5 72.3328 20.7051 72.4891 20.8613C72.6453 21.0176 72.8276 21.1283 73.0359 21.1934C73.2443 21.2585 73.4656 21.291 73.7 21.291C74.3706 21.291 74.8979 21.1608 75.282 20.9004C75.6727 20.6335 75.9493 20.2754 76.1121 19.8262C76.2814 19.377 76.366 18.8724 76.366 18.3125ZM85.8031 12.4336V14.1523H79.8461V12.4336H85.8031ZM81.5648 9.8457H83.9184V20.0801C83.9184 20.4056 83.9639 20.6562 84.0551 20.832C84.1527 21.0013 84.2862 21.1152 84.4555 21.1738C84.6247 21.2324 84.8233 21.2617 85.0512 21.2617C85.2139 21.2617 85.3702 21.252 85.5199 21.2324C85.6697 21.2129 85.7901 21.1934 85.8812 21.1738L85.891 22.9707C85.6957 23.0293 85.4678 23.0814 85.2074 23.127C84.9535 23.1725 84.6605 23.1953 84.3285 23.1953C83.7881 23.1953 83.3096 23.1009 82.893 22.9121C82.4763 22.7168 82.1508 22.401 81.9164 21.9648C81.682 21.5286 81.5648 20.9492 81.5648 20.2266V9.8457ZM94.127 20.5098V12.4336H96.4902V23H94.2637L94.127 20.5098ZM94.459 18.3125L95.25 18.293C95.25 19.0026 95.1719 19.6569 95.0156 20.2559C94.8594 20.8483 94.6185 21.3659 94.293 21.8086C93.9674 22.2448 93.5508 22.5866 93.043 22.834C92.5352 23.0749 91.9264 23.1953 91.2168 23.1953C90.7025 23.1953 90.2305 23.1204 89.8008 22.9707C89.3711 22.821 89 22.5898 88.6875 22.2773C88.3815 21.9648 88.1439 21.5579 87.9746 21.0566C87.8053 20.5553 87.7207 19.9564 87.7207 19.2598V12.4336H90.0742V19.2793C90.0742 19.6634 90.1198 19.9857 90.2109 20.2461C90.3021 20.5 90.4258 20.7051 90.582 20.8613C90.7383 21.0176 90.9206 21.1283 91.1289 21.1934C91.3372 21.2585 91.5586 21.291 91.793 21.291C92.4635 21.291 92.9909 21.1608 93.375 20.9004C93.7656 20.6335 94.0423 20.2754 94.2051 19.8262C94.3743 19.377 94.459 18.8724 94.459 18.3125ZM99.0621 8H101.416V20.7441L101.191 23H99.0621V8ZM108.31 17.6191V17.8242C108.31 18.6055 108.222 19.3249 108.046 19.9824C107.877 20.6335 107.617 21.1999 107.265 21.6816C106.92 22.1634 106.49 22.5378 105.976 22.8047C105.468 23.0651 104.879 23.1953 104.209 23.1953C103.551 23.1953 102.978 23.0716 102.49 22.8242C102.002 22.5768 101.591 22.2253 101.259 21.7695C100.934 21.3138 100.67 20.7702 100.468 20.1387C100.267 19.5072 100.123 18.8105 100.039 18.0488V17.3945C100.123 16.6263 100.267 15.9297 100.468 15.3047C100.67 14.6732 100.934 14.1296 101.259 13.6738C101.591 13.2116 101.998 12.8568 102.48 12.6094C102.968 12.362 103.538 12.2383 104.189 12.2383C104.866 12.2383 105.462 12.3685 105.976 12.6289C106.497 12.8893 106.93 13.2604 107.275 13.7422C107.62 14.2174 107.877 14.7839 108.046 15.4414C108.222 16.099 108.31 16.8249 108.31 17.6191ZM105.957 17.8242V17.6191C105.957 17.1439 105.918 16.6979 105.839 16.2812C105.761 15.8581 105.631 15.487 105.449 15.168C105.273 14.849 105.032 14.5983 104.726 14.416C104.427 14.2272 104.052 14.1328 103.603 14.1328C103.186 14.1328 102.828 14.2044 102.529 14.3477C102.229 14.4909 101.979 14.6862 101.777 14.9336C101.575 15.181 101.416 15.4674 101.298 15.793C101.188 16.1185 101.113 16.4701 101.074 16.8477V18.6152C101.132 19.1035 101.256 19.5527 101.445 19.9629C101.64 20.3665 101.914 20.6921 102.265 20.9395C102.617 21.1803 103.069 21.3008 103.623 21.3008C104.059 21.3008 104.427 21.2129 104.726 21.0371C105.026 20.8613 105.263 20.6172 105.439 20.3047C105.621 19.9857 105.752 19.6146 105.83 19.1914C105.914 18.7682 105.957 18.3125 105.957 17.8242ZM115.111 23.1953C114.329 23.1953 113.623 23.0684 112.991 22.8145C112.366 22.554 111.833 22.1927 111.39 21.7305C110.954 21.2682 110.618 20.7246 110.384 20.0996C110.15 19.4746 110.032 18.8008 110.032 18.0781V17.6875C110.032 16.8607 110.153 16.112 110.394 15.4414C110.635 14.7708 110.97 14.1979 111.4 13.7227C111.829 13.2409 112.337 12.873 112.923 12.6191C113.509 12.3652 114.144 12.2383 114.827 12.2383C115.583 12.2383 116.243 12.3652 116.81 12.6191C117.376 12.873 117.845 13.2311 118.216 13.6934C118.594 14.1491 118.874 14.6927 119.056 15.3242C119.245 15.9557 119.339 16.6523 119.339 17.4141V18.4199H111.175V16.7305H117.015V16.5449C117.002 16.1217 116.917 15.7246 116.761 15.3535C116.611 14.9824 116.38 14.6829 116.068 14.4551C115.755 14.2272 115.338 14.1133 114.818 14.1133C114.427 14.1133 114.079 14.1979 113.773 14.3672C113.473 14.5299 113.223 14.7676 113.021 15.0801C112.819 15.3926 112.663 15.7702 112.552 16.2129C112.448 16.6491 112.396 17.1406 112.396 17.6875V18.0781C112.396 18.5404 112.458 18.9701 112.581 19.3672C112.711 19.7578 112.9 20.0996 113.148 20.3926C113.395 20.6855 113.695 20.9167 114.046 21.0859C114.398 21.2487 114.798 21.3301 115.247 21.3301C115.814 21.3301 116.318 21.2161 116.761 20.9883C117.204 20.7604 117.588 20.4382 117.913 20.0215L119.154 21.2227C118.926 21.5547 118.629 21.8737 118.265 22.1797C117.9 22.4792 117.454 22.7233 116.927 22.9121C116.406 23.1009 115.801 23.1953 115.111 23.1953Z" fill="white"/>
<path d="M9.39841 0.193301C8.84703 0.320179 7.16785 0.853069 5.63904 1.36058C4.1353 1.8681 2.25562 2.42636 1.50375 2.57862L0.125312 2.85775L0.0501248 16.1039L0 29.35H1.0025C1.55387 29.35 3.58393 28.8425 5.53879 28.2081C11.7041 26.2034 14.3106 26.1526 16.6916 27.9797C18.4209 29.3246 19.3732 28.5887 17.7442 27.1677C15.0124 24.8585 11.8545 24.8077 5.28817 26.9647C3.43355 27.5737 1.77943 28.0812 1.57893 28.0812C1.30325 28.0812 1.25312 26.0511 1.30325 15.977L1.37843 3.87278L2.38093 3.66977C2.9323 3.54289 4.78692 2.98463 6.51623 2.40099C9.37334 1.43671 9.87459 1.33521 12.2806 1.33521C14.3357 1.30983 15.0876 1.41133 15.7141 1.76659C16.7668 2.35024 18.1703 3.82203 18.5462 4.73555C18.9472 5.7252 19.6489 5.7252 20.0499 4.73555C20.4259 3.82203 21.8294 2.35024 22.882 1.76659C23.5085 1.41133 24.2604 1.30983 26.3155 1.33521C28.7215 1.33521 29.2228 1.43671 32.0799 2.40099C33.8092 2.98463 35.6638 3.54289 36.2152 3.66977L37.2177 3.87278L37.2929 15.977C37.343 26.2795 37.2929 28.0812 36.9921 28.0812C36.7916 28.0812 35.1375 27.5737 33.2829 26.9647C26.7416 24.8077 23.5837 24.8585 20.877 27.1677C19.2229 28.5887 20.1752 29.3246 21.9046 27.9797C24.2855 26.1526 26.892 26.2034 33.0573 28.2081C35.0122 28.8425 37.0423 29.35 37.5936 29.35H38.5961L38.546 16.1039L38.4708 2.85775L37.0924 2.57862C36.3405 2.40099 34.2603 1.79197 32.4558 1.18295C29.3732 0.117174 29.0473 0.0664225 26.3155 0.0410468C23.0073 0.0410468 22.08 0.370931 20.3006 2.24873L19.2981 3.26376L18.2956 2.24873C16.6916 0.548561 15.5387 0.0917982 12.7818 0.0156711C11.4786 -0.0350803 9.94978 0.0410468 9.39841 0.193301Z" fill="white"/>
<path d="M18.847 7.07012C18.6715 7.24775 18.5462 8.18665 18.5462 9.48081V11.587L16.5162 10.2928C15.3883 9.58231 14.3357 9.0748 14.1352 9.15092C13.5838 9.35393 13.6089 22.4478 14.1603 22.6508C14.3608 22.7523 15.4134 22.2448 16.5412 21.5089L18.5462 20.2147V23.2091C18.5462 25.4929 18.6465 26.3303 18.9221 26.7109C19.2981 27.193 19.2981 27.193 19.674 26.7109C19.9748 26.3303 20.05 25.4421 20.05 22.7523V19.2758L22.4309 17.7787C23.7592 16.9666 24.8118 16.1292 24.8118 15.9009C24.8118 15.6979 23.7592 14.8605 22.4309 14.0484L20.05 12.5513V9.96295C20.05 7.57763 19.8495 6.76561 19.2981 6.76561C19.2229 6.76561 19.0224 6.89249 18.847 7.07012Z" fill="white"/>
<path d="M10.1503 28.1066C9.44853 28.2081 7.31823 28.8425 5.41348 29.4768C3.48368 30.1112 1.67918 30.6187 1.35337 30.6187C0.451124 30.6187 0 30.8979 0 31.4054C0 32.192 1.62906 32.0144 5.53879 30.7456C11.7292 28.7156 14.3106 28.6648 16.6665 30.5172C17.669 31.2785 17.9698 31.38 19.2981 31.38C20.6264 31.38 20.9271 31.2785 21.9296 30.5172C24.2855 28.6902 26.917 28.7409 33.0573 30.7456C36.9671 32.0144 38.5961 32.192 38.5961 31.4054C38.5961 30.8979 38.145 30.6187 37.2428 30.6187C36.9169 30.6187 35.1375 30.1112 33.2328 29.4768C27.1677 27.4722 24.2103 27.396 21.5286 29.2485C19.8244 30.3904 18.7718 30.4157 17.0675 29.2485C15.1628 27.9543 13.0826 27.599 10.1503 28.1066Z" fill="white"/>
</svg>
