<svg width="60" height="60" viewBox="0 0 60 60" fill="none" xmlns="http://www.w3.org/2000/svg">
<path d="M60 30C60 46.5685 46.5685 60 30 60C13.4315 60 0 46.5685 0 30C0 13.4315 13.4315 0 30 0C46.5685 0 60 13.4315 60 30Z" fill="#D9D9D9"/>
<path d="M21.3259 18.7175C20.8427 18.8304 19.3714 19.3045 18.0319 19.7561C16.7143 20.2076 15.0673 20.7043 14.4085 20.8398L13.2007 21.0882L13.1348 32.8738L13.0909 44.6595H13.9693C14.4524 44.6595 16.2312 44.2079 17.944 43.6435C23.3462 41.8598 25.63 41.8146 27.7162 43.4403C29.2314 44.6369 30.0659 43.9821 28.6385 42.7178C26.2449 40.6632 23.4779 40.618 17.7244 42.5371C16.0994 43.079 14.6501 43.5306 14.4744 43.5306C14.2328 43.5306 14.1889 41.7243 14.2328 32.7609L14.2987 21.9913L15.1771 21.8107C15.6602 21.6978 17.2852 21.201 18.8005 20.6818C21.3039 19.8238 21.7431 19.7335 23.8512 19.7335C25.652 19.7109 26.3107 19.8012 26.8597 20.1173C27.7821 20.6366 29.0118 21.9461 29.3412 22.7589C29.6926 23.6395 30.3074 23.6395 30.6588 22.7589C30.9882 21.9461 32.2179 20.6366 33.1403 20.1173C33.6893 19.8012 34.3481 19.7109 36.1488 19.7335C38.2569 19.7335 38.6961 19.8238 41.1995 20.6818C42.7148 21.201 44.3398 21.6978 44.8229 21.8107L45.7013 21.9913L45.7672 32.7609C45.8111 41.9275 45.7672 43.5306 45.5037 43.5306C45.328 43.5306 43.8786 43.079 42.2536 42.5371C36.5221 40.618 33.7551 40.6632 31.3835 42.7178C29.9341 43.9821 30.7686 44.6369 32.2838 43.4403C34.37 41.8146 36.6538 41.8598 42.056 43.6435C43.7688 44.2079 45.5476 44.6595 46.0307 44.6595H46.9091L46.8652 32.8738L46.7993 21.0882L45.5915 20.8398C44.9327 20.6818 43.11 20.1399 41.5289 19.598C38.8279 18.6497 38.5424 18.6046 36.1488 18.582C33.2501 18.582 32.4375 18.8755 30.8784 20.5463L30 21.4494L29.1216 20.5463C27.7162 19.0336 26.706 18.6272 24.2904 18.5594C23.1485 18.5143 21.809 18.582 21.3259 18.7175Z" fill="white"/>
<path d="M29.6047 24.8361C29.451 24.9942 29.3412 25.8295 29.3412 26.981V28.855L27.5625 27.7035C26.5743 27.0713 25.6519 26.6198 25.4763 26.6875C24.9932 26.8681 25.0151 38.5183 25.4982 38.6989C25.6739 38.7892 26.5962 38.3377 27.5844 37.6829L29.3412 36.5314V39.1956C29.3412 41.2276 29.429 41.9727 29.6706 42.3114C30 42.7404 30 42.7404 30.3294 42.3114C30.5929 41.9727 30.6588 41.1825 30.6588 38.7892V35.6961L32.745 34.364C33.9089 33.6415 34.8312 32.8964 34.8312 32.6932C34.8312 32.5126 33.9089 31.7675 32.745 31.045L30.6588 29.7129V27.41C30.6588 25.2877 30.4831 24.5652 30 24.5652C29.9341 24.5652 29.7584 24.6781 29.6047 24.8361Z" fill="white"/>
<path d="M21.9847 43.5531C21.3698 43.6434 19.5032 44.2079 17.8342 44.7723C16.1433 45.3368 14.5622 45.7883 14.2767 45.7883C13.4862 45.7883 13.0909 46.0367 13.0909 46.4882C13.0909 47.1881 14.5183 47.0301 17.944 45.9012C23.3681 44.095 25.63 44.0498 27.6942 45.698C28.5726 46.3753 28.8361 46.4656 30 46.4656C31.1639 46.4656 31.4274 46.3753 32.3058 45.698C34.37 44.0724 36.6758 44.1175 42.056 45.9012C45.4817 47.0301 46.9091 47.1881 46.9091 46.4882C46.9091 46.0367 46.5138 45.7883 45.7233 45.7883C45.4378 45.7883 43.8786 45.3368 42.2097 44.7723C36.8954 42.9887 34.3041 42.9209 31.9544 44.5691C30.4612 45.5851 29.5388 45.6077 28.0456 44.5691C26.3766 43.4176 24.554 43.1015 21.9847 43.5531Z" fill="white"/>
<path d="M42.3927 56.7546C38.5988 58.4884 34.3807 59.4546 29.9369 59.4546C25.6946 59.4546 21.658 58.574 17.9999 56.9858C18.5934 51.321 23.3304 46.9091 30.2096 46.9091C36.995 46.9091 41.6962 51.2014 42.3927 56.7546Z" fill="white"/>
</svg>
