<svg width="80" height="80" viewBox="0 0 80 80" fill="none" xmlns="http://www.w3.org/2000/svg">
<path d="M80 40C80 62.0914 62.0914 80 40 80C17.9086 80 0 62.0914 0 40C0 17.9086 17.9086 0 40 0C62.0914 0 80 17.9086 80 40Z" fill="white"/>
<path d="M30.1521 24.4992C29.5866 24.6276 27.8643 25.1673 26.2963 25.6812C24.754 26.1952 22.8261 26.7605 22.055 26.9147L20.6412 27.1973L20.5641 40.6111L20.5127 54.0249H21.5409C22.1064 54.0249 24.1885 53.511 26.1935 52.8685C32.517 50.8385 35.1903 50.7871 37.6323 52.6373C39.4059 53.9992 40.3827 53.254 38.7119 51.815C35.91 49.4765 32.6712 49.4252 25.9365 51.6094C24.0343 52.2261 22.3378 52.7401 22.1321 52.7401C21.8494 52.7401 21.7979 50.6843 21.8494 40.4826L21.9265 28.2252L22.9547 28.0196C23.5202 27.8911 25.4224 27.3258 27.196 26.7348C30.1264 25.7583 30.6405 25.6555 33.1082 25.6555C35.216 25.6298 35.9871 25.7326 36.6298 26.0924C37.7094 26.6834 39.1489 28.1738 39.5344 29.0989C39.9457 30.1011 40.6654 30.1011 41.0767 29.0989C41.4623 28.1738 42.9018 26.6834 43.9814 26.0924C44.624 25.7326 45.3952 25.6298 47.503 25.6555C49.9707 25.6555 50.4848 25.7583 53.4152 26.7348C55.1888 27.3258 57.091 27.8911 57.6565 28.0196L58.6847 28.2252L58.7618 40.4826C58.8132 50.9156 58.7618 52.7401 58.4533 52.7401C58.2477 52.7401 56.5512 52.2261 54.649 51.6094C47.94 49.4252 44.7011 49.4765 41.925 51.815C40.2285 53.254 41.2053 53.9992 42.9789 52.6373C45.4209 50.7871 48.0942 50.8385 54.4176 52.8685C56.4226 53.511 58.5047 54.0249 59.0703 54.0249H60.0985L60.0471 40.6111L59.9699 27.1973L58.5562 26.9147C57.785 26.7348 55.6515 26.1181 53.8007 25.5013C50.639 24.4221 50.3048 24.3707 47.503 24.345C44.1099 24.345 43.1588 24.679 41.3338 26.5806L40.3056 27.6085L39.2774 26.5806C37.6323 24.8589 36.4498 24.3964 33.6223 24.3193C32.2856 24.2679 30.7176 24.345 30.1521 24.4992Z" fill="#09CF83"/>
<path d="M39.8437 31.4632C39.6637 31.643 39.5352 32.5938 39.5352 33.9044V36.0372L37.4531 34.7267C36.2964 34.0072 35.2167 33.4932 35.0111 33.5703C34.4456 33.7759 34.4713 47.0355 35.0368 47.2411C35.2425 47.3439 36.3221 46.8299 37.4788 46.0847L39.5352 44.7742V47.8064C39.5352 50.1191 39.638 50.9671 39.9208 51.3526C40.3063 51.8408 40.3063 51.8408 40.6919 51.3526C41.0004 50.9671 41.0775 50.0677 41.0775 47.3439V43.8234L43.5195 42.3073C44.8818 41.485 45.9615 40.637 45.9615 40.4057C45.9615 40.2001 44.8818 39.3521 43.5195 38.5298L41.0775 37.0137V34.3926C41.0775 31.9771 40.8719 31.1548 40.3063 31.1548C40.2292 31.1548 40.0236 31.2833 39.8437 31.4632Z" fill="#09CF83"/>
<path d="M30.9232 52.7658C30.2035 52.8686 28.0186 53.5111 26.065 54.1535C24.0857 54.7959 22.2349 55.3098 21.9008 55.3098C20.9754 55.3098 20.5127 55.5925 20.5127 56.1064C20.5127 56.903 22.1835 56.7232 26.1935 55.4383C32.5427 53.3826 35.1903 53.3312 37.6065 55.207C38.6348 55.978 38.9432 56.0807 40.3056 56.0807C41.6679 56.0807 41.9764 55.978 43.0046 55.207C45.4209 53.3569 48.1199 53.4083 54.4176 55.4383C58.4276 56.7232 60.0985 56.903 60.0985 56.1064C60.0985 55.5925 59.6358 55.3098 58.7104 55.3098C58.3762 55.3098 56.5512 54.7959 54.5976 54.1535C48.377 52.1234 45.3438 52.0463 42.5933 53.9222C40.8454 55.0786 39.7658 55.1043 38.0178 53.9222C36.0642 52.6117 33.9307 52.2519 30.9232 52.7658Z" fill="#09CF83"/>
</svg>
